<?xml version="1.0" encoding="utf-8"?>
<!-- Generator: Adobe Illustrator 15.1.0, SVG Export Plug-In . SVG Version: 6.00 Build 0)  -->
<!DOCTYPE svg PUBLIC "-//W3C//DTD SVG 1.1//EN" "http://www.w3.org/Graphics/SVG/1.1/DTD/svg11.dtd">
<svg version="1.1" id="Layer_1" xmlns="http://www.w3.org/2000/svg" xmlns:xlink="http://www.w3.org/1999/xlink" x="0px" y="0px"
	 width="793.701px" height="680.315px" viewBox="0 0 793.701 680.315" enable-background="new 0 0 793.701 680.315"
	 xml:space="preserve">
<path fill="#000" d="M720.645,254.258c-4.899-18.515-11.397-36.604-19.489-54.165c-18.122-39.33-43.388-74.364-75.095-104.126
	s-68.269-52.762-108.665-68.362C475.559,11.45,431.439,3.983,386.257,5.413c-45.181,1.431-88.741,11.671-129.473,30.439
	c-39.329,18.123-74.362,43.389-104.125,75.096c-29.762,31.708-52.763,68.268-68.362,108.666
	c-4.396,11.386-8.125,22.945-11.231,34.644H12.232v171.799h60.825c4.899,18.516,11.396,36.604,19.487,54.165
	c18.123,39.331,43.389,74.364,75.096,104.127c31.708,29.762,68.268,52.763,108.665,68.362
	c41.837,16.154,85.958,23.621,131.138,22.19c45.182-1.429,88.741-11.67,129.473-30.439c39.33-18.122,74.363-43.387,104.125-75.095
	c29.763-31.708,52.764-68.268,68.363-108.667c4.396-11.385,8.125-22.944,11.23-34.644h60.834V254.258H720.645z M697.899,410.627
	c-6.487,0.171-12.935,0.3-19.275,0.318c-7.896,0.021-15.624-0.136-23.012-0.646c-16.928-30.834-30.127-65.564-46.253-97.236
	c-0.596,29.689,0.4,66.083-0.37,97.625c-11.872,0.323-23.452,0.341-34.209-0.502c-0.04-46.29,0.32-92.198,0.104-138.656
	c0.328-0.903,0.938-1.539,1.825-1.905c12.646,0.987,27.957-0.811,40.421,0.367c16.801,29.911,29.618,63.98,45.578,94.766
	c1.382-30.934-0.761-65.24,1.034-95.775c4.592,0.452,9.691,0.375,14.843,0.243c6.701-0.171,13.491-0.434,19.366,0.26
	C697.474,316.092,697.901,363.564,697.899,410.627z M387.662,49.788c81.545-2.58,156.401,28.887,210.915,81.527
	c-2.173-0.093-4.303-0.141-6.297-0.409c-5.643-1.607-8.612-6.064-16.273-5.521c-6.224,1.314-17.158,1.661-23.453,0.742
	c-20.735-1.426-40.7-7.406-55.499-15.683c-12.376-6.924-22.058-15.089-39.331-13.512c-12.344,1.125-14.627,7.229-23.008,14.814
	c-2.721,3.299-6.599,5.511-10.488,7.71c-15.385,14.776-54.634,15.309-70.38,1.557c-5.958-2.196-9.936-6.502-13.114-11.659
	c-1.743-1.838-3.586-3.568-5.531-5.19c-1.269-0.495-2.489-1.042-4.064-1.213c-14.381,1.021-23.157,7.305-33.833,11.803
	c-1.881,0.402-2.794,1.712-4.627,2.159c-1.449,1.891-4.678,2.11-6.595,3.562c-2.809,0.832-4.164,3.029-7.266,3.584
	c-7.543,4.838-16.087,8.739-23.72,13.495l-0.671,0.021c-9.929,6.933-21.7,12.14-32.972,17.813c-2.539,0.653-3.958,2.354-6.617,2.893
	c-2.903,2.26-7.17,3.239-10.573,5.03c-2.738,0.247-3.709,2.153-6.636,2.223c-7.348,3.939-16.476,6.209-25.9,8.198
	c-4.446-0.331-8.896,1.989-12.771,0.667c-0.145-0.05-0.289-0.109-0.433-0.167C209.26,101.544,292.451,52.801,387.662,49.788z
	 M119.514,253.648l45.418-5.13c0,0,100.745-6.766,253.785-7.263c153.041-0.498,250.077,11.881,250.077,11.881
	c0.511-0.015,1.31,0.5,2.236,1.122H119.33C119.393,254.055,119.451,253.851,119.514,253.648z M501.636,391.875
	c2.047-2.778,7.43-5.257,9.743-9.54c4.721-8.744,4.943-25.761,5.324-41.15c0.575-23.138-0.985-44.843-14.789-51.287
	c0.542-6.987-1.834-16.768,0.771-21.778c36.534,0.911,50.054,25.451,51.145,64.799c1.205,43.362-7.688,79.813-52.37,79.478
	C500.977,403.743,501.824,399.501,501.636,391.875z M483.602,391.644c0.344,7.228,0.204,13.99-0.178,20.521
	c-33.106,0.46-50.604-17.716-53.377-52.937c-2.119-26.953-0.128-58.806,10.854-72.982c10.077-13.008,26.051-17.131,42.504-18.331
	c0.152,7.043,0.307,14.087,0.459,21.131c-16.318,4.668-17.063,25.062-17.594,48.879
	C465.681,364.373,466.916,386.694,483.602,391.644z M337.89,410.346c-13.756,0.675-22.656-0.089-35.437,0.146
	c-0.202-29.404-0.58-58.979-0.035-87.67c10.671-0.526,25.688-0.428,36.06-0.159c0.075,3.521,0.152,7.043,0.228,10.565
	c25.007,5.563,48.889-7.244,38.507-30.68c-5.153-11.629-21.485-11.151-37.545-11c-1.122,2.983-1.17,6.994-0.999,11.214
	c-12.488,0.542-24.199,0.272-36.06,0.16c-0.293-10.423-0.563-20.826-0.039-30.466c-0.05-1.062,0.427-1.619,1.203-1.891
	c50.085,1.717,109.337-11.009,112.146,39.228c2.153,38.482-33.757,47.219-77.363,45.201
	C338.428,373.534,338.991,392.738,337.89,410.346z M275.081,409.842c-11.299,2.025-23.565-0.367-36.047,0.78
	c-0.586-44.916-0.176-91.337,0.119-138.035c-0.073-0.881-0.142-1.757,0.581-1.878c12.197-0.45,22.956,0.602,35.438-0.146
	C276.096,317.903,274.509,362.84,275.081,409.842z M132.905,410.98l-17.817,0.046l-18.639,0.049l-0.018-7.339
	c-1.207-0.435-0.549-1.467-0.007-2.334l-0.003-1.377c-0.16-0.015-0.361-0.009-0.62,0.023c0.203-0.093,0.409-0.178,0.62-0.255
	l-0.006-2.271c-0.015,0.01-0.031,0.016-0.046,0.026c-0.482-1.099-0.404-1.993,0.039-2.677l-0.015-6.036
	c-0.073,0.008-0.146,0.013-0.212,0.013c-0.633-12.37-0.065-23.594-0.148-35.438c0.091,0.038,0.179,0.068,0.267,0.097l-0.049-18.755
	l-0.031-11.886l10.639-0.028l5.238-0.014c0.019-0.076,0.038-0.149,0.057-0.23c6.721,0.185,14.785-1.033,20.522,0.177
	c0.163,1.448,0.087,2.761,0.01,3.925l0.008,2.998c0.19,1.023,0.722,1.812,2.006,2.339l1.083-0.003h0
	c16.354-0.321,37.84-0.327,39.612-17.646c1.587-15.504-9.124-22.218-24.771-22.943c-0.594-0.003-5.035,0.019-9.544,1.123
	l-2.226,0.64c-3.73,1.259-7.06,3.414-7.719,7.104l0.007,2.703l-22.43,0.059l-11.899,0.031l0-0.109
	c-0.21,0.018-0.418,0.031-0.627,0.052c0.549-10.429-0.355-22.251,0.542-32.344l9.741-0.025c2.793-0.098,5.614-0.224,8.356-0.267
	c2.707-0.043,5.335-0.004,7.781,0.225l5.972-0.016l26.422-0.376c32.387-1.067,58.897,8.207,56.981,39.62
	c-1.031,16.903-10.794,27.571-28.549,31.086c-0.104,0.088-0.186,0.2-0.254,0.322c2.913,0.504,5.058,0.963,6.832,1.456
	c5.198,1.013,9.164,3.309,12.256,6.519c-0.003,0.036-0.011,0.066-0.014,0.102c1.051,1.181,1.962,2.545,2.748,4.031
	c0.596,0.521,0.897,1.352,1.082,2.299c1.841,4.387,2.821,9.47,3.336,13.984c0.043-0.021,0.088-0.036,0.129-0.055
	c0.012,0.55,0.023,1.102,0.036,1.653c0.558,5.962,0.333,10.571,0.333,10.573c1.231,10.822,0.37,23.829,7.964,28.008
	c-12.25,2.174-25.344-0.207-38.531,0.834c-2.804-2.514-3.787-6.63-4.076-10.73c-0.075-0.347-0.101-0.558-0.101-0.558l-0.533-10.391
	c-0.038,0.008-0.074,0.016-0.112,0.021c-0.027-1.276-0.054-2.555-0.083-3.833l-1.077-21.013
	c-3.315-14.546-22.785-12.221-39.449-12.823c-0.002-0.022-0.004-0.044-0.005-0.065l-1.161,0.004L132.905,410.98z M428.974,569.687
	v3.666h-0.733c0.29,3.469-0.235,6.121-0.734,8.802c-0.062,1.161,0.354,2.798-0.733,2.934v2.935
	c0.024,16.065-2.804,29.278-6.428,41.695c-4.737,0.382-9.505,0.657-14.306,0.809c-40.81,1.292-79.939-5.957-115.691-20.104v-1.863
	c-1.517-5.532,0.878-9.948,1.467-15.4v-10.271c-0.092-4.493,0.039-8.763,1.468-11.734v-0.734c0.471-2.217,1.145-4.232,3.667-4.398
	c-0.162,2.36,1.297,3.102,0.732,5.867c0.206,4.075,4.388-0.129,5.135,3.666c2.65,0.207,1.677-3.212,2.934-4.4
	c-0.208-1.184,0.693-1.263,0.733-2.201c0.246-5.279,9.796-5.764,10.268,0c-1.213,4.392,3.81,6.058,3.667,1.467
	c-0.352-2.306,1.045-2.866,1.467-4.398c4.49-2.318,5.839-8.182,11.001-8.803c4.129-0.497,22.828,9.42,27.138,10.268
	c3.422-0.486,4.713,1.156,7.336,1.467c7.033,0.677,10.998-1.714,16.87-2.2c2.111-1.312,5.441-1.402,8.069-2.2
	c7.754-3.25,22.059-3.853,32.271-2.201c1.729-0.944,1.365,0.098,3.668-0.731C429.601,563.192,428.735,566.992,428.974,569.687z
	 M442.423,619.571v7.52c-3.885,0.615-7.8,1.137-11.736,1.596v-3.979c0.461-2.229-0.938-6.319,0.734-7.337
	c0.257-10.01,5.167-15.368,9.535-21.271c-0.366,5.257,2,7.781,1.467,13.203C443.641,611.047,443.641,617.826,442.423,619.571z
	 M439.241,450.862c-4.018,0.139-6.954,1.359-10.268,2.201c-0.624-0.134-0.692,0.287-0.733,0.734h-1.468
	c-3.276,0.634-6.042,1.781-10.268,1.467c-4.514,0.356-7.008-1.307-11.735-0.735c-33.924-2.505-62.744-10.113-95.351-13.935
	c-9.93-0.441-20.614-1.019-33.007-0.734c-20,2.005-27.409,16.6-27.871,38.143c-0.512,8.403-1.063,18.257-1.467,28.604
	c0.251,5.876-1.304,9.945-0.735,16.136c-0.46,2.23,0.939,6.319-0.733,7.337c0.241,3.419-0.572,5.784-1.467,8.068
	c-0.004,3.172-1.702,4.654-1.467,8.066v10.27c0.5,11.97,5.979,18.958,8.068,29.339c0.325,1.065,0.643-0.075,1.467,0v-2.201
	c0.718-4.66,2.108-8.648,3.667-12.469v-8.067c-1.654-0.547-0.288-4.115-0.732-5.868v-1.467c-5.577-15.238-3.688-33.909-2.201-52.811
	c0.446-1.753-0.921-5.322,0.733-5.868c0.824-3.578-2.001-10.802,2.2-11.003v2.935c1.834,10.391,2.53,21.921,6.601,30.072
	c0.315,1.399,1.582,1.844,1.467,3.667c0.388,0.592,0.766,1.192,0.733,2.201c2.387,2.994,3.376,7.381,5.135,11.002
	c0.389,0.59,0.766,1.19,0.732,2.202c1.173,1.028,1.875,2.525,2.2,4.399v0.735c2.162,8.521-2.447,16.616-5.867,22.003
	c-0.914,2.754-2.546,4.788-2.201,8.801c1.832,8.54,3.741,17.002,4.268,26.847c-70.876-34.911-125.796-97.935-149.639-174.876
	h420.948c-4.742,4.892-7.91,11.197-10.061,17.473c-4.764-1.596-6.953-5.764-11.735-7.337c-3.4-0.464-1.858,4.011-2.2,6.602v2.2
	c0.686,6.072-13.218,3.893-19.07,5.867c-3.056-0.597-6.122,1-7.335,0c-2.227,1.22-9.509,1.22-11.735,0
	C465.137,450.911,451.73,449.049,439.241,450.862z M253.921,482.412c-2.136-0.578-2.574-9.772,0-10.27
	C254.532,476.417,252.801,479.757,253.921,482.412z M454.565,624.889c0.013-0.295,0.038-0.603,0.079-0.926v-9.537
	c0.517-9.018,5.22-13.851,5.869-22.736c-0.322-2.521,0.289-4.109,0.733-5.867c1.051-3.593,2.614-6.677,3.666-10.27
	c3.941-3.48,15.969-3.394,19.805-9.533h0.733c4.016-4.788,9.438-8.166,13.203-13.204c-0.209-1.184,0.692-1.262,0.731-2.2
	c6.468-11.959,6.561-28.374,15.403-37.407c5.442-5.56,12.449-5.22,19.07-10.269c3.818,0.396,5.437-1.409,8.802-1.467h10.269
	c10.275-3.454,16.199-1.123,25.672-0.734c4.215-1.897,8.878-3.347,11.001-7.334v-0.734c0.69-5.58-5.311-4.469-6.601-8.066
	c-1.403-2.022-3.255-3.592-4.4-5.869c-3.633-5.903-10.694-8.377-10.269-18.336c-0.984-0.482-1.366-1.57-1.467-2.935
	c-4.716-3.597-8.057-8.57-11.736-13.204h-0.733c-3.064,0.061-3.194-10.736-0.617-18.203h120.604
	C643.322,526.087,559.422,603.691,454.565,624.889z"/>
</svg>
